<?xml version="1.0" encoding="utf-8"?><!-- Uploaded to: SVG Repo, www.svgrepo.com, Generator: SVG Repo Mixer Tools -->
<svg width="800px" height="800px" viewBox="0 0 400 400" fill="none" xmlns="http://www.w3.org/2000/svg">
<path d="M62.2234 191.656C47.3364 172.103 44.7777 156.178 54.5475 143.88C64.3172 131.582 78.9691 129.603 98.5031 137.942C87.9874 114.967 88.8426 100.599 101.069 94.8387C113.295 89.0786 132.296 87.6527 158.071 90.5611C176.553 67.3213 196.387 56.5217 217.573 58.1623C249.351 60.623 271.656 66.4655 281.122 107.954C284.526 116.144 327.402 103.48 343.14 128.543C358.877 153.607 355.748 186.52 343.14 189.088C330.531 191.656 373.709 186.913 356.768 213.106C350.838 222.275 324.576 245.87 306.407 251.132C272.67 260.903 239.368 247.072 222.35 239.453C215.673 231.009 187.833 271.483 150.647 269.236C125.856 267.738 111.812 254.996 108.516 231.009C97.8456 240.811 84.0709 243.626 67.1913 239.453C41.8719 233.194 31.8704 211.337 47.4058 198.481" stroke="#000000" stroke-opacity="0.9" stroke-width="16" stroke-linecap="round" stroke-linejoin="round"/>
<path d="M75.8046 278.033C76.8119 275.757 78.8888 274.328 81.0984 273.766C82.3622 273.445 83.1737 273.389 84.456 273.161C86.2837 272.837 89.5367 273.757 90.7307 274.334C93.0843 275.473 94.2499 277.53 95.2032 279.795C96.0289 281.757 96.6698 283.912 96.5108 286.083C96.5111 287.029 96.3113 287.912 96.1197 288.844C94.8665 294.937 89.4266 297.714 86.5127 298.01C83.4882 298.316 80.6381 297.813 78.058 296.034C77.3601 295.552 75.3584 293.835 74.6992 291.943C73.9513 289.796 73.1097 287.486 73.7791 285.1C74.0532 284.124 74.1138 283.018 74.921 282.194" stroke="#000000" stroke-opacity="0.9" stroke-width="16" stroke-linecap="round" stroke-linejoin="round"/>
<path d="M53.3444 327.882C54.0451 326.244 55.4899 325.215 57.027 324.81C57.9062 324.579 58.4707 324.539 59.3627 324.375C60.6342 324.141 62.8971 324.804 63.7277 325.219C65.365 326.039 66.1759 327.52 66.839 329.151C67.4135 330.564 67.8593 332.115 67.7487 333.678C67.7489 334.359 67.6099 334.995 67.4766 335.666C66.6049 340.053 62.8205 342.053 60.7935 342.266C58.6895 342.486 56.7068 342.124 54.912 340.843C54.4264 340.496 53.034 339.26 52.5754 337.898C52.0551 336.352 51.4696 334.689 51.9354 332.971C52.126 332.268 52.1681 331.472 52.7297 330.879" stroke="#000000" stroke-opacity="0.9" stroke-width="16" stroke-linecap="round" stroke-linejoin="round"/>
</svg>