<?xml version="1.0" encoding="utf-8"?>
<!-- Uploaded to: SVG Repo, www.svgrepo.com, Generator: SVG Repo Mixer Tools -->
<svg fill="#000000" width="800px" height="800px" viewBox="-21.75 0 121.43 121.43" xmlns="http://www.w3.org/2000/svg">
  <g id="Rocket" transform="translate(-559.683 -89.71)">
    <g id="Group_12" data-name="Group 12">
      <path id="Path_12" data-name="Path 12" d="M636.623,171.85a10.027,10.027,0,0,0-1.66-2.36l-17.74-19.61v-32.7c0-9.65-7.6-27.47-18.42-27.47h-.31c-10.82,0-18.42,17.82-18.42,27.47v32.7l-17.74,19.61a9.869,9.869,0,0,0-1.66,2.37,9.995,9.995,0,0,0-.99,4.34v5.04a6.432,6.432,0,0,0,6.43,6.43h13.96v1.7a5.725,5.725,0,0,0,5.72,5.72h1.67v5.05a2.75,2.75,0,1,0,5.5,0v-5.05h2.93v2.36a2.75,2.75,0,0,0,5.5,0v-2.36h2.94v5.05a2.75,2.75,0,1,0,5.5,0v-5.05h1.67a5.725,5.725,0,0,0,5.72-5.72v-1.7h13.96a6.432,6.432,0,0,0,6.43-6.43V176.2A10.07,10.07,0,0,0,636.623,171.85Zm-56.55,10.32h-13.96a.935.935,0,0,1-.93-.93V176.2a4.478,4.478,0,0,1,.44-1.94,5.028,5.028,0,0,1,.78-1.08l13.67-15.11Zm15.82,7.42h-10.1a.222.222,0,0,1-.22-.22v-1.7h10.32Zm15.83-.22a.222.222,0,0,1-.22.22h-10.11v-1.92h10.33Zm0-7.2h-10.33v-7.14a2.75,2.75,0,1,0-5.5,0v7.14h-10.32V167.9h26.15Zm0-19.77h-26.15V148.12h26.15Zm0-19.78h-26.15V128.34h26.15Zm0-19.78h-26.15v-5.66c0-7.87,6.51-21.97,12.92-21.97h.31c6.41,0,12.92,14.1,12.92,21.97Zm20.39,58.4a.935.935,0,0,1-.93.93h-13.96v-24.1l13.67,15.11a5.026,5.026,0,0,1,.78,1.08,4.477,4.477,0,0,1,.44,1.94Z"/>
    </g>
    <g id="Group_13" data-name="Group 13">
      <path id="Path_13" data-name="Path 13" d="M601.393,205.86v2.53a2.75,2.75,0,1,1-5.5,0v-2.53a2.75,2.75,0,1,1,5.5,0Z"/>
    </g>
    <g id="Group_14" data-name="Group 14">
      <path id="Path_14" data-name="Path 14" d="M606.743,117.59a2.753,2.753,0,0,1-3.53-1.63,4.714,4.714,0,0,0-4.5-3.23,4.917,4.917,0,0,0-4.65,3.27,2.759,2.759,0,0,1-2.57,1.77,2.676,2.676,0,0,1-.99-.19,2.754,2.754,0,0,1-1.58-3.55,10.355,10.355,0,0,1,9.79-6.8,10.133,10.133,0,0,1,9.67,6.84A2.743,2.743,0,0,1,606.743,117.59Z"/>
    </g>
  </g>
</svg>